# File produced by Open Asset Import Library (http://www.assimp.sf.net)
# (assimp v3.1.187496374)

mtllib bush.mtl

# 138 vertex positions
v  -0.93296 -37.5531 -3.88187
v  -0.93296 0.459986 -6.11831
v  3.2715 0.459986 -4.37676
v  1.69011 -37.5531 -2.79536
v  5.01305 0.459987 -0.172297
v  2.77662 -37.5531 -0.172291
v  3.2715 0.459988 4.03217
v  1.69011 -37.5531 2.45078
v  -0.932961 0.459988 5.77371
v  -0.932961 -37.5531 3.53729
v  -5.13742 0.459988 4.03217
v  -3.55603 -37.5531 2.45078
v  -6.87897 0.459987 -0.172297
v  -4.64254 -37.5531 -0.172291
v  -5.13742 0.459986 -4.37676
v  -3.55603 -37.5531 -2.79536
v  -5.13742 -50.9243 -4.37675
v  -0.93296 -50.9243 -6.1183
v  3.2715 -50.9243 -4.37675
v  5.01305 -50.9243 -0.172289
v  3.2715 -50.9243 4.03217
v  -0.932961 -50.9243 5.77372
v  -5.13742 -50.9243 4.03217
v  -6.87897 -50.9243 -0.172289
v  -6.41917 -32.4642 2.37606
v  27.3939 -19.7821 6.49251
v  -15.1187 -23.6037 41.9194
v  43.3672 -0.419644 30.866
v  50.1702 -6.3526 -10.0551
v  -40.1229 -10.332 12.2589
v  -15.1187 -23.6037 -11.6303
v  27.3939 -19.7821 -26.6027
v  55.5472 18.0648 19.261
v  -21.2198 -6.92902 60.697
v  18.6945 -3.66494 46.0361
v  4.61783 18.0648 56.2635
v  -59.8667 6.34273 12.2589
v  -48.8226 3.09733 39.0338
v  -51.8623 31.3363 16.3754
v  -10.1828 -3.10739 -55.6076
v  -48.8226 0.409612 -27.2845
v  -32.409 31.3363 -43.4953
v  43.3672 -3.10737 -38.2078
v  18.6945 -6.35267 -53.3779
v  36.0939 15.377 -53.3781
v  36.0939 18.0648 46.0363
v  -32.409 31.3364 43.1507
v  -51.8623 31.3363 -16.72
v  4.61783 15.377 -63.6053
v  55.5472 15.377 -26.6028
v  19.4185 36.5492 48.2658
v  41.4705 39.7944 29.4883
v  13.3174 53.2239 29.4882
v  -39.6823 49.8208 27.9804
v  -15.0096 53.0661 43.1504
v  -23.7091 66.4955 16.3753
v  -39.6823 49.8207 -28.325
v  -46.4853 53.066 -0.172306
v  -23.7091 66.4955 -16.7199
v  19.4185 33.8615 -55.6076
v  -15.0096 53.066 -43.495
v  13.3174 53.2239 -24.0615
v  52.5145 36.549 2.71333
v  41.4705 37.1067 -36.8301
v  32.7708 53.2238 2.71333
v  4.61783 59.3966 2.71333
v  -39.3897 32.9098 -33.6137
v  -34.8645 36.3668 -30.326
v  -41.1181 36.3668 -28.2941
v  -34.8645 36.3668 -36.9015
v  -44.9832 36.3668 -33.6137
v  -41.1181 36.3668 -38.9334
v  -33.7962 41.9603 -33.6137
v  -37.6613 41.9603 -28.2941
v  -43.9149 41.9603 -30.326
v  -43.9149 41.9603 -36.9015
v  -37.6613 41.9603 -38.9334
v  -39.3897 45.4173 -33.6137
v  21.4729 35.1696 -42.3038
v  25.9981 38.6266 -39.0161
v  19.7444 38.6266 -36.9842
v  25.9981 38.6266 -45.5916
v  15.8794 38.6266 -42.3038
v  19.7444 38.6266 -47.6235
v  27.0664 44.2201 -42.3038
v  23.2013 44.2201 -36.9842
v  16.9477 44.2201 -39.0161
v  16.9477 44.2201 -45.5916
v  23.2013 44.2201 -47.6235
v  21.4729 47.6771 -42.3038
v  44.0923 32.7726 14.3422
v  48.6175 36.2296 17.6299
v  42.3638 36.2296 19.6619
v  48.6175 36.2296 11.0545
v  38.4988 36.2296 14.3422
v  42.3638 36.2296 9.02252
v  49.6857 41.8231 14.3422
v  45.8207 41.8231 19.6619
v  39.5671 41.8231 17.6299
v  39.5671 41.8231 11.0545
v  45.8207 41.8231 9.02252
v  44.0923 45.2801 14.3422
v  11.8019 21.2984 50.2498
v  16.3271 24.7553 53.5375
v  10.0735 24.7553 55.5695
v  16.3271 24.7553 46.9621
v  6.20845 24.7553 50.2498
v  10.0735 24.7553 44.9301
v  17.3954 30.3489 50.2498
v  13.5304 30.3489 55.5695
v  7.27674 30.3489 53.5375
v  7.27674 30.3489 46.9621
v  13.5304 30.3489 44.9301
v  11.8019 33.8058 50.2498
v  -43.4534 25.6708 29.5973
v  -38.9282 29.1278 32.885
v  -45.1818 29.1278 34.917
v  -38.9282 29.1278 26.3096
v  -49.0469 29.1278 29.5973
v  -45.1818 29.1278 24.2776
v  -37.8599 34.7213 29.5973
v  -41.725 34.7213 34.917
v  -47.9786 34.7213 32.885
v  -47.9786 34.7213 26.3096
v  -41.725 34.7213 24.2776
v  -43.4534 38.1783 29.5973
v  8.7582 49.6629 16.119
v  13.2834 53.1198 19.4067
v  7.02977 53.1198 21.4387
v  13.2834 53.1198 12.8313
v  3.16471 53.1198 16.119
v  7.02977 53.1198 10.7993
v  14.3517 58.7134 16.119
v  10.4866 58.7134 21.4387
v  4.23301 58.7134 19.4067
v  4.23301 58.7134 12.8313
v  10.4866 58.7134 10.7993
v  8.7582 62.1703 16.119

# 0 UV coordinates

# 214 vertex normals
vn 38.2119 -5.42747 -92.2518
vn 92.2518 -5.42746 -38.2119
vn 92.2518 -5.42745 38.2119
vn 38.2119 -5.42744 92.2518
vn -38.212 -5.42744 92.2518
vn -92.2518 -5.42745 38.2119
vn 1.4552e-07 100 -1.62921e-05
vn -92.2518 -5.42746 -38.2119
vn -38.2119 -5.42747 -92.2518
vn 0 -100 1.62921e-05
vn -37.8195 15.2713 -91.3043
vn -91.3043 15.2713 -37.8195
vn -91.3043 15.2713 37.8195
vn -37.8195 15.2713 91.3043
vn 37.8195 15.2713 91.3043
vn 91.3043 15.2713 37.8195
vn 91.3043 15.2713 -37.8195
vn 37.8195 15.2713 -91.3043
vn 30.8704 -91.1398 27.2131
vn 60.6025 -76.67 21.191
vn -53.2699 -84.3257 7.17542
vn -57.3395 -80.4863 -15.3014
vn -9.45196 -86.6794 -48.9626
vn 87.1732 -44.3095 20.9165
vn 35.2191 -20.1978 91.3874
vn -89.1944 22.0651 39.4651
vn -59.4127 -10.2846 -79.7769
vn 51.5813 -41.303 -75.0562
vn 79.8345 -16.19 58.0029
vn -19.3359 36.1666 91.2036
vn -95.2353 30.4997 -4.96903e-06
vn -47.679 0.144055 -87.9016
vn 79.8345 -16.19 -58.0029
vn 35.9066 75.2739 55.1775
vn -41.3814 75.2739 51.1997
vn -61.4816 75.274 -23.5339
vn 30.6846 83.6464 -45.4063
vn 63.6165 75.3252 -16.705
vn 21.1627 96.5181 -15.3754
vn 38.0108 88.2752 -27.6166
vn 27.169 84.2747 -46.4718
vn 31.4917 94.2141 -11.4882
vn 24.7985 89.5839 -36.8748
vn -41.3814 75.2739 -51.1998
vn 24.3087 97.0004 -1.58034e-05
vn -50.791 86.141 -1.40342e-05
vn -61.4816 75.274 23.5339
vn 29.6284 94.7261 12.2117
vn 18.4142 90.1257 39.2208
vn 27.8223 76.1314 58.5656
vn 21.1627 96.5181 15.3754
vn 41.0905 86.1412 29.8541
vn 63.5729 75.2737 17.0984
vn 86.253 44.8351 -23.4572
vn 78.5333 24.02 -57.0575
vn 55.4433 41.3031 -72.2502
vn -6.83071 44.174 -89.4539
vn -35.8629 28.7171 -88.8211
vn -51.5813 41.303 -75.0562
vn -87.3225 41.3028 -25.8624
vn -97.0722 24.0204 -3.91343e-06
vn -87.3225 41.3028 25.8624
vn -51.5813 41.303 75.0562
vn -25.9513 20.7809 94.3116
vn 3.95632 36.9937 92.8214
vn 55.4433 41.3031 72.2502
vn 78.5333 24.02 57.0575
vn 85.847 41.3028 30.4035
vn 30.494 16.1902 -93.8509
vn 29.997 -24.0203 -92.3212
vn 2.38778 -41.303 -91.0404
vn -79.8345 16.19 -58.0029
vn -80.3134 12.0389 -58.3508
vn -96.3251 -0.292551 -26.8586
vn -79.8345 16.19 58.0029
vn -75.5112 35.892 54.8618
vn -55.6658 20.6232 80.4736
vn 30.494 16.1902 93.8509
vn 29.997 -24.0202 92.3212
vn 51.5813 -41.303 75.0562
vn 98.8026 15.4021 -0.902606
vn 97.2984 -23.0478 1.35065
vn 87.3225 -41.3028 -25.8624
vn 41.3814 -75.2739 -51.1997
vn -7.01051 -90.0611 -42.8935
vn -6.82652 -90.1321 -42.7738
vn -38.6007 -81.8796 -42.4938
vn -54.3666 -83.2513 -10.6536
vn -64.3849 -76.235 -6.54361
vn -63.573 -75.2737 17.0984
vn -62.017 -76.3229 18.1302
vn -58.4322 -69.1709 42.4391
vn 61.4816 -75.274 -23.5339
vn 50.791 -86.141 1.40342e-05
vn 35.1176 -93.6309 1.52544e-05
vn 30.5907 -66.0369 68.5809
vn 42.2401 -80.3098 42.0252
vn 36.6973 -83.0425 41.9196
vn 18.7596 -79.4651 57.7354
vn 60.7065 -79.4653 1.29465e-05
vn -49.1121 -79.4652 35.683
vn -49.1121 -79.4653 -35.6829
vn 18.7596 -79.4652 -57.7353
vn 98.2246 -18.7596 3.05633e-06
vn 30.3536 -18.7589 93.4171
vn -79.4649 -18.7586 57.736
vn -79.4649 -18.7587 -57.736
vn 30.3535 -18.7588 -93.4172
vn 79.465 18.7587 57.7359
vn -30.3535 18.759 93.4172
vn -98.2246 18.7598 -3.05636e-06
vn -30.3535 18.7587 -93.4172
vn 79.465 18.7588 -57.7358
vn 49.1122 79.4652 35.6829
vn -18.7597 79.4651 57.7354
vn -60.7065 79.4652 -1.29465e-05
vn -18.7597 79.4652 -57.7353
vn 49.1122 79.4652 -35.6829
vn 18.7596 -79.4651 57.7354
vn 60.7064 -79.4653 1.29465e-05
vn -49.1122 -79.4652 35.683
vn -49.1122 -79.4652 -35.683
vn 18.7596 -79.4651 -57.7353
vn 98.2246 -18.7596 3.05633e-06
vn 30.3536 -18.7589 93.4171
vn -79.4649 -18.7587 57.7359
vn -79.4649 -18.7588 -57.7359
vn 30.3535 -18.7589 -93.4172
vn 79.4649 18.7588 57.7359
vn -30.3536 18.759 93.4171
vn -98.2246 18.7598 -3.05636e-06
vn -30.3535 18.7587 -93.4172
vn 79.4649 18.7587 -57.736
vn 49.1122 79.4653 35.6829
vn -18.7596 79.4651 57.7354
vn -60.7065 79.4652 -1.29465e-05
vn -18.7596 79.4651 -57.7353
vn 49.1122 79.4652 -35.6829
vn 18.7597 -79.465 57.7354
vn -49.1122 -79.4652 35.683
vn -49.1122 -79.4652 -35.683
vn 18.7596 -79.4651 -57.7354
vn 98.2246 -18.7596 3.05633e-06
vn 30.3535 -18.7589 93.4172
vn -79.4649 -18.7586 57.736
vn -79.4649 -18.7587 -57.736
vn 30.3535 -18.7589 -93.4172
vn 79.4649 18.7587 57.7359
vn -30.3536 18.759 93.4171
vn -98.2246 18.7598 -3.05635e-06
vn -30.3536 18.7589 -93.4172
vn 79.4649 18.7587 -57.7359
vn 49.1122 79.4652 35.6829
vn -18.7598 79.465 57.7354
vn -60.7065 79.4652 -1.29465e-05
vn -18.7596 79.4651 -57.7354
vn 49.1122 79.4652 -35.6829
vn 18.7597 -79.465 57.7355
vn 60.7064 -79.4653 1.29465e-05
vn -49.1122 -79.4652 35.683
vn -49.1122 -79.4652 -35.683
vn 18.7596 -79.4651 -57.7353
vn 98.2246 -18.7597 3.05634e-06
vn 30.3537 -18.7589 93.4171
vn -79.4649 -18.7585 57.736
vn -79.4649 -18.7587 -57.736
vn 30.3535 -18.7589 -93.4172
vn 79.4649 18.7586 57.736
vn -30.3536 18.759 93.4171
vn -30.3535 18.7588 -93.4172
vn 79.4649 18.7589 -57.7359
vn 49.1121 79.4653 35.6828
vn -18.7597 79.4651 57.7354
vn -60.7064 79.4653 -1.29465e-05
vn -18.7597 79.4651 -57.7353
vn 49.1122 79.4652 -35.6829
vn 18.7597 -79.465 57.7355
vn 60.7065 -79.4652 1.29465e-05
vn -49.1122 -79.4652 -35.6829
vn 18.7596 -79.4651 -57.7353
vn 98.2246 -18.7596 3.05633e-06
vn 30.3536 -18.759 93.4171
vn -79.4648 -18.7586 57.7361
vn -79.4649 -18.7587 -57.736
vn 30.3536 -18.7589 -93.4172
vn 79.465 18.7587 57.7359
vn -30.3536 18.759 93.4171
vn -98.2246 18.7598 -3.05636e-06
vn -30.3535 18.7588 -93.4172
vn 79.465 18.7587 -57.7358
vn -18.7597 79.4651 57.7354
vn -60.7065 79.4652 -1.29465e-05
vn -18.7596 79.4652 -57.7353
vn 49.1121 79.4653 -35.6829
vn 18.7597 -79.465 57.7354
vn 60.7065 -79.4653 1.29465e-05
vn -49.1122 -79.4652 35.683
vn -49.1122 -79.4652 -35.683
vn 18.7596 -79.4651 -57.7354
vn 98.2246 -18.7596 3.05633e-06
vn 30.3536 -18.7589 93.4171
vn -79.4649 -18.7586 57.736
vn -79.4649 -18.7587 -57.7359
vn 30.3536 -18.7589 -93.4172
vn 79.4649 18.7587 57.7359
vn -30.3536 18.759 93.4171
vn -98.2246 18.7598 -3.05636e-06
vn -30.3535 18.7589 -93.4172
vn 79.4649 18.7587 -57.736
vn 49.1121 79.4653 35.6828
vn -18.7596 79.4652 57.7353
vn -60.7064 79.4653 -1.29465e-05
vn -18.7596 79.4652 -57.7353
vn 49.1122 79.4653 -35.6828

# Mesh 'Bush3.2_Cylinder' with 44 faces
g Bush3.2_Cylinder
usemtl Stick
f  1//1 2//1 3//1
f  1//1 3//1 4//1
f  4//2 3//2 5//2
f  4//2 5//2 6//2
f  6//3 5//3 7//3
f  6//3 7//3 8//3
f  8//4 7//4 9//4
f  8//4 9//4 10//4
f  10//5 9//5 11//5
f  10//5 11//5 12//5
f  12//6 11//6 13//6
f  12//6 13//6 14//6
f  5//7 3//7 2//7
f  5//7 2//7 15//7
f  5//7 15//7 13//7
f  5//7 13//7 11//7
f  5//7 11//7 9//7
f  9//7 7//7 5//7
f  14//8 13//8 15//8
f  14//8 15//8 16//8
f  16//9 15//9 2//9
f  16//9 2//9 1//9
f  17//10 18//10 19//10
f  17//10 19//10 20//10
f  17//10 20//10 21//10
f  17//10 21//10 22//10
f  17//10 22//10 23//10
f  23//10 24//10 17//10
f  17//11 16//11 1//11
f  17//11 1//11 18//11
f  24//12 14//12 16//12
f  24//12 16//12 17//12
f  23//13 12//13 14//13
f  23//13 14//13 24//13
f  22//14 10//14 12//14
f  22//14 12//14 23//14
f  21//15 8//15 10//15
f  21//15 10//15 22//15
f  20//16 6//16 8//16
f  20//16 8//16 21//16
f  19//17 4//17 6//17
f  19//17 6//17 20//17
f  18//18 1//18 4//18
f  18//18 4//18 19//18

# Mesh 'Bush3.2_Cylinder' with 80 faces
g Bush3.2_Cylinder
usemtl Bush
f  25//19 26//19 27//19
f  28//20 26//20 29//20
f  25//21 27//21 30//21
f  25//22 30//22 31//22
f  25//23 31//23 32//23
f  28//24 29//24 33//24
f  34//25 35//25 36//25
f  37//26 38//26 39//26
f  40//27 41//27 42//27
f  43//28 44//28 45//28
f  28//29 33//29 46//29
f  34//30 36//30 47//30
f  37//31 39//31 48//31
f  40//32 42//32 49//32
f  43//33 45//33 50//33
f  51//34 52//34 53//34
f  54//35 55//35 56//35
f  57//36 58//36 59//36
f  60//37 61//37 62//37
f  63//38 64//38 65//38
f  65//39 62//39 66//39
f  65//40 64//40 62//40
f  64//41 60//41 62//41
f  62//42 59//42 66//42
f  62//43 61//43 59//43
f  61//44 57//44 59//44
f  59//45 56//45 66//45
f  59//46 58//46 56//46
f  58//47 54//47 56//47
f  56//48 53//48 66//48
f  56//49 55//49 53//49
f  55//50 51//50 53//50
f  53//51 65//51 66//51
f  53//52 52//52 65//52
f  52//53 63//53 65//53
f  50//54 64//54 63//54
f  50//55 45//55 64//55
f  45//56 60//56 64//56
f  49//57 61//57 60//57
f  49//58 42//58 61//58
f  42//59 57//59 61//59
f  48//60 58//60 57//60
f  48//61 39//61 58//61
f  39//62 54//62 58//62
f  47//63 55//63 54//63
f  47//64 36//64 55//64
f  36//65 51//65 55//65
f  46//66 52//66 51//66
f  46//67 33//67 52//67
f  33//68 63//68 52//68
f  45//69 49//69 60//69
f  45//70 44//70 49//70
f  44//71 40//71 49//71
f  42//72 48//72 57//72
f  42//73 41//73 48//73
f  41//74 37//74 48//74
f  39//75 47//75 54//75
f  39//76 38//76 47//76
f  38//77 34//77 47//77
f  36//78 46//78 51//78
f  36//79 35//79 46//79
f  35//80 28//80 46//80
f  33//81 50//81 63//81
f  33//82 29//82 50//82
f  29//83 43//83 50//83
f  32//84 44//84 43//84
f  32//85 31//85 44//85
f  31//86 40//86 44//86
f  31//87 41//87 40//87
f  31//88 30//88 41//88
f  30//89 37//89 41//89
f  30//90 38//90 37//90
f  30//91 27//91 38//91
f  27//92 34//92 38//92
f  29//93 32//93 43//93
f  29//94 26//94 32//94
f  26//95 25//95 32//95
f  27//96 35//96 34//96
f  27//97 26//97 35//97
f  26//98 28//98 35//98

# Mesh 'Bush3.2_Cylinder' with 120 faces
g Bush3.2_Cylinder
usemtl Flowers
f  67//99 68//99 69//99
f  68//100 67//100 70//100
f  67//101 69//101 71//101
f  67//102 71//102 72//102
f  67//103 72//103 70//103
f  68//104 70//104 73//104
f  69//105 68//105 74//105
f  71//106 69//106 75//106
f  72//107 71//107 76//107
f  70//108 72//108 77//108
f  68//109 73//109 74//109
f  69//110 74//110 75//110
f  71//111 75//111 76//111
f  72//112 76//112 77//112
f  70//113 77//113 73//113
f  74//114 73//114 78//114
f  75//115 74//115 78//115
f  76//116 75//116 78//116
f  77//117 76//117 78//117
f  73//118 77//118 78//118
f  79//119 80//119 81//119
f  80//120 79//120 82//120
f  79//121 81//121 83//121
f  79//122 83//122 84//122
f  79//123 84//123 82//123
f  80//124 82//124 85//124
f  81//125 80//125 86//125
f  83//126 81//126 87//126
f  84//127 83//127 88//127
f  82//128 84//128 89//128
f  80//129 85//129 86//129
f  81//130 86//130 87//130
f  83//131 87//131 88//131
f  84//132 88//132 89//132
f  82//133 89//133 85//133
f  86//134 85//134 90//134
f  87//135 86//135 90//135
f  88//136 87//136 90//136
f  89//137 88//137 90//137
f  85//138 89//138 90//138
f  91//139 92//139 93//139
f  92//100 91//100 94//100
f  91//140 93//140 95//140
f  91//141 95//141 96//141
f  91//142 96//142 94//142
f  92//143 94//143 97//143
f  93//144 92//144 98//144
f  95//145 93//145 99//145
f  96//146 95//146 100//146
f  94//147 96//147 101//147
f  92//148 97//148 98//148
f  93//149 98//149 99//149
f  95//150 99//150 100//150
f  96//151 100//151 101//151
f  94//152 101//152 97//152
f  98//153 97//153 102//153
f  99//154 98//154 102//154
f  100//155 99//155 102//155
f  101//156 100//156 102//156
f  97//157 101//157 102//157
f  103//158 104//158 105//158
f  104//159 103//159 106//159
f  103//160 105//160 107//160
f  103//161 107//161 108//161
f  103//162 108//162 106//162
f  104//163 106//163 109//163
f  105//164 104//164 110//164
f  107//165 105//165 111//165
f  108//166 107//166 112//166
f  106//167 108//167 113//167
f  104//168 109//168 110//168
f  105//169 110//169 111//169
f  107//150 111//150 112//150
f  108//170 112//170 113//170
f  106//171 113//171 109//171
f  110//172 109//172 114//172
f  111//173 110//173 114//173
f  112//174 111//174 114//174
f  113//175 112//175 114//175
f  109//176 113//176 114//176
f  115//177 116//177 117//177
f  116//178 115//178 118//178
f  115//140 117//140 119//140
f  115//179 119//179 120//179
f  115//180 120//180 118//180
f  116//181 118//181 121//181
f  117//182 116//182 122//182
f  119//183 117//183 123//183
f  120//184 119//184 124//184
f  118//185 120//185 125//185
f  116//186 121//186 122//186
f  117//187 122//187 123//187
f  119//188 123//188 124//188
f  120//189 124//189 125//189
f  118//190 125//190 121//190
f  122//114 121//114 126//114
f  123//191 122//191 126//191
f  124//192 123//192 126//192
f  125//193 124//193 126//193
f  121//194 125//194 126//194
f  127//195 128//195 129//195
f  128//196 127//196 130//196
f  127//197 129//197 131//197
f  127//198 131//198 132//198
f  127//199 132//199 130//199
f  128//200 130//200 133//200
f  129//201 128//201 134//201
f  131//202 129//202 135//202
f  132//203 131//203 136//203
f  130//204 132//204 137//204
f  128//205 133//205 134//205
f  129//206 134//206 135//206
f  131//207 135//207 136//207
f  132//208 136//208 137//208
f  130//209 137//209 133//209
f  134//210 133//210 138//210
f  135//211 134//211 138//211
f  136//212 135//212 138//212
f  137//213 136//213 138//213
f  133//214 137//214 138//214

